<svg width="170" height="170" viewBox="0 0 170 170" fill="none" xmlns="http://www.w3.org/2000/svg">
<path d="M0 70C0 31.3401 31.3401 0 70 0H100C138.66 0 170 31.3401 170 70V100C170 138.66 138.66 170 100 170H70C31.3401 170 0 138.66 0 100V70Z" fill="white"/>
<path d="M122.5 25H47.5C41.5326 25 35.8097 27.3705 31.5901 31.5901C27.3705 35.8097 25 41.5326 25 47.5V122.5C25 128.467 27.3705 134.19 31.5901 138.41C35.8097 142.629 41.5326 145 47.5 145H101.287C105.265 145 109.08 143.419 111.894 140.606L140.606 111.893C141.999 110.5 143.104 108.847 143.858 107.027C144.612 105.207 145 103.257 145 101.287V47.5C145 41.5326 142.629 35.8097 138.41 31.5901C134.19 27.3705 128.467 25 122.5 25ZM55 51.25H115C116.492 51.25 117.923 51.8426 118.977 52.8975C120.032 53.9524 120.625 55.3832 120.625 56.875C120.625 58.3668 120.032 59.7976 118.977 60.8525C117.923 61.9074 116.492 62.5 115 62.5H55C53.5082 62.5 52.0774 61.9074 51.0225 60.8525C49.9676 59.7976 49.375 58.3668 49.375 56.875C49.375 55.3832 49.9676 53.9524 51.0225 52.8975C52.0774 51.8426 53.5082 51.25 55 51.25ZM55 88.75C53.5082 88.75 52.0774 88.1574 51.0225 87.1025C49.9676 86.0476 49.375 84.6168 49.375 83.125C49.375 81.6332 49.9676 80.2024 51.0225 79.1475C52.0774 78.0926 53.5082 77.5 55 77.5H115C116.492 77.5 117.923 78.0926 118.977 79.1475C120.032 80.2024 120.625 81.6332 120.625 83.125C120.625 84.6168 120.032 86.0476 118.977 87.1025C117.923 88.1574 116.492 88.75 115 88.75H55ZM107.5 134.394V115C107.502 113.012 108.293 111.105 109.699 109.699C111.105 108.293 113.012 107.502 115 107.5H134.393L107.5 134.394Z" fill="black"/>
</svg>
